<svg width="256" height="256" viewBox="0 0 256 256" fill="none" xmlns="http://www.w3.org/2000/svg">
<rect width="256" height="256" rx="60" fill="white"/>
<path d="M147.615 72.0322C147.615 79.5129 141.551 85.5771 134.07 85.5771H120.299C112.818 85.5771 106.754 79.5129 106.754 72.0322V57.545C106.754 50.0643 100.69 44 93.2089 44H78.1485C70.6678 44 64.6035 50.0643 64.6035 57.545V72.6054C64.6035 80.0861 70.6678 86.1504 78.1485 86.1504H92.4931C99.9738 86.1504 106.038 92.2147 106.038 99.6954V113.448C106.038 120.929 99.9738 126.993 92.4931 126.993H78.1485C70.6678 126.993 64.6035 133.057 64.6035 140.538V155.599C64.6035 163.079 70.6678 169.144 78.1485 169.144H93.208C100.689 169.144 106.753 175.208 106.753 182.689V197.749C106.753 205.23 112.817 211.294 120.298 211.294H135.358C142.839 211.294 148.903 205.23 148.903 197.749V183.742C148.903 176.262 154.968 170.197 162.448 170.197H176.455C183.936 170.197 190 164.133 190 156.652V141.592C190 134.111 183.936 128.047 176.455 128.047H161.395C153.914 128.047 147.85 134.111 147.85 141.592V155.599C147.85 163.079 141.785 169.144 134.305 169.144H120.299C112.818 169.144 106.754 163.079 106.754 155.599V141.273C106.754 133.792 112.818 127.728 120.299 127.728H134.644C142.124 127.728 148.188 121.663 148.188 114.183V99.6954C148.188 92.2147 154.253 86.1504 161.733 86.1504H176.221C183.701 86.1504 189.766 80.0861 189.766 72.6054V57.545C189.766 50.0643 183.701 44 176.221 44H161.16C153.68 44 147.615 50.0643 147.615 57.545V72.0322Z" fill="black"/>
</svg>
