<svg width="285" height="379" viewBox="0 0 285 379" fill="none" xmlns="http://www.w3.org/2000/svg">
<g clip-path="url(#clip0_1_4)">
<path d="M188.28 74.2005C188.28 85.2324 179.326 94.1754 168.278 94.1754H115.604C104.557 94.1754 95.6023 85.2324 95.6023 74.2005V19.9749C95.6023 8.94306 86.6472 0 75.6006 0H20.0017C8.95504 0 0 8.94306 0 19.9749V75.4995C0 86.5313 8.95504 95.4744 20.0017 95.4744H73.9768C85.0235 95.4744 93.9785 104.417 93.9785 115.449V168.012C93.9785 179.043 85.0235 187.987 73.9768 187.987H20.0017C8.95504 187.987 0 196.93 0 207.962V263.486C0 274.518 8.95504 283.461 20.0017 283.461H75.5993C86.6458 283.461 95.6008 292.404 95.6008 303.436V358.96C95.6008 369.992 104.556 378.935 115.603 378.935H171.201C182.248 378.935 191.203 369.992 191.203 358.96V305.822C191.203 294.79 200.159 285.847 211.204 285.847H264.414C275.459 285.847 284.415 276.904 284.415 265.872V210.349C284.415 199.317 275.459 190.374 264.414 190.374H208.815C197.769 190.374 188.813 199.317 188.813 210.349V263.486C188.813 274.518 179.859 283.461 168.812 283.461H115.604C104.557 283.461 95.6023 274.518 95.6023 263.486V209.625C95.6023 198.593 104.557 189.65 115.604 189.65H169.579C180.627 189.65 189.581 180.706 189.581 169.675V115.449C189.581 104.417 198.536 95.4744 209.583 95.4744H263.88C274.928 95.4744 283.882 86.5313 283.882 75.4995V19.9749C283.882 8.94306 274.928 0 263.88 0H208.282C197.235 0 188.28 8.94306 188.28 19.9749V74.2005Z" fill="white"/>
</g>
<defs>
<clipPath id="clip0_1_4">
<rect width="285" height="379" fill="white"/>
</clipPath>
</defs>
</svg>
